<?xml version="1.0" standalone="no"?>
<!DOCTYPE svg PUBLIC "-//W3C//DTD SVG 20010904//EN"
 "http://www.w3.org/TR/2001/REC-SVG-20010904/DTD/svg10.dtd">
<svg version="1.0" xmlns="http://www.w3.org/2000/svg"
 width="880.000000pt" height="880.000000pt" viewBox="0 0 880.000000 880.000000"
 preserveAspectRatio="xMidYMid meet">
<metadata>
Created by potrace 1.14, written by Peter Selinger 2001-2017
</metadata>
<g transform="translate(0.000000,880.000000) scale(0.100000,-0.100000)"
fill="#000000" stroke="none">
<path d="M2198 8183 c-9 -10 -26 -37 -38 -61 -12 -23 -26 -45 -31 -48 -5 -3
-9 -14 -9 -24 0 -10 -4 -20 -8 -22 -8 -3 -121 -191 -185 -308 -16 -30 -38 -66
-47 -80 -9 -14 -28 -45 -42 -70 -14 -25 -35 -61 -46 -80 -12 -19 -32 -53 -44
-75 -12 -22 -28 -49 -35 -60 -7 -11 -18 -31 -25 -45 -7 -14 -45 -79 -84 -145
-40 -66 -82 -139 -95 -161 -13 -23 -85 -146 -159 -273 -74 -127 -139 -239
-145 -249 -5 -9 -31 -54 -58 -99 -26 -46 -47 -86 -46 -89 0 -4 -3 -10 -8 -13
-5 -3 -28 -40 -51 -81 -24 -41 -47 -82 -52 -90 -22 -37 -75 -127 -86 -145 -46
-81 -442 -761 -469 -805 -18 -30 -42 -72 -54 -92 -12 -21 -29 -53 -40 -70 -10
-18 -47 -82 -82 -143 -34 -60 -65 -112 -68 -115 -3 -3 -15 -22 -26 -42 -65
-120 -141 -248 -147 -248 -3 0 -9 -13 -13 -29 -5 -22 0 -40 19 -70 14 -22 26
-45 26 -51 0 -5 5 -10 11 -10 5 0 8 -4 5 -9 -3 -5 1 -14 9 -21 8 -7 15 -19 15
-26 0 -8 5 -14 10 -14 6 0 10 -4 10 -9 0 -5 34 -67 76 -138 42 -70 85 -144 96
-163 11 -19 24 -39 28 -45 4 -5 19 -31 33 -56 42 -77 52 -93 63 -109 6 -8 23
-36 37 -61 40 -74 52 -94 57 -99 3 -3 11 -16 18 -29 8 -13 22 -38 32 -56 10
-18 24 -43 32 -56 7 -13 15 -26 18 -29 3 -3 11 -16 18 -29 8 -13 22 -38 31
-55 10 -17 55 -93 99 -168 45 -75 82 -142 82 -147 0 -6 5 -11 10 -11 6 0 10
-7 10 -15 0 -8 4 -15 10 -15 5 0 9 -3 8 -7 -1 -5 5 -19 14 -33 49 -77 208
-352 208 -360 0 -6 4 -10 9 -10 5 0 11 -8 14 -17 4 -10 17 -36 31 -58 26 -41
39 -65 72 -125 10 -19 22 -37 25 -40 3 -3 23 -36 45 -73 21 -38 44 -76 49 -85
6 -9 21 -35 33 -57 13 -22 36 -62 53 -90 16 -27 33 -57 36 -65 4 -8 11 -19 16
-25 6 -8 184 -307 287 -485 5 -8 36 -62 70 -120 33 -58 65 -112 70 -120 6 -8
20 -34 32 -57 12 -24 26 -43 30 -43 4 0 8 -4 8 -9 0 -8 126 -227 182 -316 14
-22 27 -44 29 -50 15 -35 53 -85 65 -85 19 0 49 31 70 72 9 18 20 35 23 38 4
3 12 16 18 30 7 14 26 48 42 75 17 28 40 68 53 90 12 22 27 48 33 57 5 9 46
79 90 155 44 75 92 158 107 183 15 25 32 54 38 65 5 11 28 49 49 85 22 36 51
88 66 115 15 28 34 58 43 68 8 9 11 17 6 17 -5 0 -4 4 2 8 6 4 24 30 38 57 15
28 35 64 45 80 22 37 297 508 321 550 10 17 41 71 70 120 29 50 62 106 73 125
11 19 28 49 38 65 11 17 22 37 26 45 3 8 21 39 40 68 18 29 33 55 33 58 0 3
16 30 35 60 19 30 35 56 35 58 0 2 43 77 96 167 53 90 108 184 122 209 14 25
33 57 43 72 11 14 19 29 19 32 0 4 11 25 26 47 14 22 34 56 45 75 39 69 57
100 89 154 18 30 42 71 53 90 10 19 40 71 65 115 24 44 55 96 67 115 12 19 57
96 100 170 43 74 85 146 93 160 9 14 17 33 19 42 2 10 -27 68 -63 130 -37 62
-78 133 -92 158 -14 25 -43 73 -64 108 -21 34 -38 67 -38 72 0 6 -4 10 -10 10
-5 0 -10 5 -10 11 0 6 -8 23 -19 37 -10 15 -29 47 -43 72 -14 25 -34 59 -44
77 -10 17 -48 80 -83 140 -35 59 -69 118 -75 130 -6 13 -14 23 -18 23 -5 0 -8
6 -8 13 0 6 -18 40 -40 75 -22 34 -40 64 -40 66 0 2 -18 34 -41 71 -22 37 -49
82 -59 99 -10 17 -55 94 -100 171 -46 77 -90 154 -100 170 -9 17 -45 77 -79
133 -33 57 -61 108 -61 113 0 5 -3 9 -7 9 -5 0 -13 10 -19 23 -31 62 -61 114
-76 131 -10 11 -18 23 -18 27 0 4 -19 37 -41 75 -23 37 -53 87 -66 112 -14 24
-38 65 -53 90 -60 99 -120 205 -120 213 0 5 -4 9 -9 9 -5 0 -11 8 -14 18 -4 9
-17 35 -30 57 -14 22 -62 103 -107 180 -46 77 -91 154 -101 170 -10 17 -22 37
-26 45 -4 8 -31 54 -60 102 -29 48 -53 92 -53 98 0 5 -3 10 -7 10 -5 0 -13 10
-19 23 -6 12 -47 84 -92 160 -45 76 -82 142 -82 147 0 6 -4 10 -9 10 -5 0 -11
8 -15 18 -3 9 -17 35 -31 57 -14 22 -32 54 -40 70 -17 37 -52 75 -69 75 -7 0
-20 -8 -28 -17z"/>
<path d="M3250 8185 c-11 -13 -9 -26 15 -75 16 -33 32 -60 37 -60 4 0 8 -4 8
-9 0 -10 120 -223 130 -231 4 -3 9 -13 13 -23 4 -10 36 -67 72 -127 36 -61 65
-115 65 -120 0 -6 4 -10 9 -10 5 0 15 -15 22 -32 7 -18 27 -55 44 -83 18 -27
43 -70 57 -95 31 -56 36 -64 198 -345 73 -126 138 -239 144 -250 6 -11 13 -22
16 -25 3 -3 14 -21 24 -40 11 -19 42 -75 71 -125 29 -49 87 -151 130 -225 42
-74 84 -146 93 -160 9 -14 15 -28 14 -32 -1 -5 2 -8 8 -8 5 0 10 -5 10 -10 0
-6 11 -27 23 -48 21 -33 48 -79 94 -162 8 -14 23 -38 33 -55 11 -16 23 -37 27
-45 4 -8 44 -78 88 -155 80 -136 219 -377 256 -442 10 -17 29 -50 43 -72 15
-22 26 -47 26 -56 0 -8 4 -15 8 -15 5 0 16 -15 25 -32 15 -29 59 -104 93 -163
12 -18 31 -19 585 -19 316 -1 584 0 596 3 34 5 38 36 10 84 -14 23 -35 60 -47
82 -13 22 -31 54 -41 70 -10 17 -23 39 -29 50 -5 11 -22 41 -37 67 -15 26 -66
114 -113 195 -46 81 -88 150 -92 151 -4 2 -8 7 -8 12 0 5 -23 48 -51 97 -29
48 -63 108 -77 133 -14 25 -49 87 -79 138 -30 51 -60 102 -66 115 -7 12 -38
65 -70 119 -31 53 -57 99 -57 102 0 3 -12 22 -26 43 -14 21 -30 47 -35 58 -5
11 -13 27 -19 35 -14 21 -200 342 -200 345 0 2 -34 60 -75 130 -41 69 -75 128
-75 131 0 2 -11 23 -26 45 -14 22 -33 55 -43 72 -10 18 -50 88 -90 156 -39 68
-71 127 -71 132 0 5 -4 9 -8 9 -4 0 -21 27 -37 60 -17 33 -33 60 -37 60 -5 0
-8 4 -8 9 0 8 -127 231 -297 521 l-79 135 -591 3 c-524 2 -592 0 -603 -13z"/>
<path d="M5410 8185 c-14 -17 -6 -47 26 -95 13 -19 24 -40 24 -47 0 -7 4 -13
8 -13 5 0 16 -18 26 -40 10 -22 23 -46 29 -53 7 -6 21 -30 32 -52 11 -22 22
-42 25 -45 3 -3 11 -16 18 -29 40 -71 57 -99 73 -126 11 -16 24 -41 31 -55 6
-14 17 -32 23 -40 7 -8 25 -40 41 -70 16 -30 31 -57 34 -60 3 -3 11 -15 18
-27 6 -13 18 -33 25 -45 6 -13 14 -25 17 -28 3 -3 13 -21 23 -40 32 -61 52
-95 57 -100 3 -3 17 -26 30 -52 14 -27 28 -48 32 -48 5 0 8 -5 8 -12 0 -6 32
-66 72 -132 39 -67 81 -139 93 -161 11 -22 33 -59 48 -82 15 -24 27 -47 27
-52 0 -5 7 -14 15 -21 8 -7 12 -16 9 -21 -3 -5 0 -9 5 -9 6 0 11 -6 11 -14 0
-8 3 -16 8 -18 7 -3 43 -66 66 -115 6 -13 14 -23 19 -23 4 0 7 -5 7 -10 0 -6
11 -27 23 -48 13 -20 35 -57 49 -82 14 -25 55 -96 92 -159 36 -62 66 -118 66
-122 0 -5 5 -9 10 -9 6 0 10 -6 10 -13 0 -7 11 -28 23 -47 13 -19 37 -60 54
-90 17 -30 94 -165 173 -300 78 -135 154 -265 168 -290 14 -25 44 -78 68 -117
24 -40 44 -75 44 -77 0 -3 23 -41 50 -86 28 -45 50 -83 50 -85 0 -1 45 -80
100 -174 55 -93 100 -175 100 -181 0 -5 5 -10 10 -10 6 0 10 -4 10 -9 0 -5 19
-39 41 -77 l41 -68 -26 -50 c-48 -94 -70 -131 -78 -134 -4 -2 -8 -8 -8 -13 0
-5 -18 -38 -40 -74 -22 -36 -40 -68 -40 -70 0 -3 -11 -24 -26 -46 -14 -22 -33
-55 -43 -72 -15 -27 -87 -151 -279 -482 -19 -33 -46 -80 -60 -105 -13 -25 -28
-49 -32 -55 -7 -9 -34 -57 -74 -130 -6 -11 -13 -22 -16 -25 -3 -3 -12 -18 -20
-35 -8 -16 -17 -32 -21 -35 -5 -5 -73 -123 -92 -160 -4 -8 -21 -37 -38 -65
-16 -27 -37 -65 -45 -83 -8 -17 -19 -32 -26 -32 -6 0 -9 -3 -5 -6 3 -4 -9 -31
-28 -60 -19 -30 -35 -56 -35 -58 0 -2 -36 -65 -80 -141 -44 -76 -80 -141 -80
-146 0 -5 -4 -9 -10 -9 -5 0 -10 -4 -10 -10 0 -5 -36 -70 -80 -146 -44 -75
-80 -140 -80 -145 0 -5 -3 -9 -8 -9 -4 0 -15 -17 -25 -37 -21 -46 -50 -96 -58
-103 -3 -3 -8 -12 -12 -20 -4 -8 -18 -33 -32 -55 -14 -22 -28 -47 -32 -55 -10
-18 -87 -154 -125 -219 -15 -25 -39 -66 -53 -91 -14 -25 -35 -61 -46 -80 -12
-19 -51 -87 -87 -150 -37 -63 -70 -116 -74 -118 -4 -2 -8 -12 -8 -23 0 -10 -3
-19 -7 -19 -5 0 -13 -10 -19 -23 -9 -19 -93 -165 -145 -252 -58 -98 -69 -126
-59 -145 10 -20 23 -20 603 -20 l593 0 177 305 c97 168 177 309 177 315 0 5 4
10 8 10 5 0 17 18 27 40 10 22 24 45 31 51 8 6 12 15 9 19 -3 4 2 13 10 20 8
7 15 19 15 26 0 8 5 14 10 14 6 0 10 4 10 10 0 5 48 92 107 192 58 101 114
197 123 213 9 17 38 65 64 108 25 43 46 81 46 84 0 2 14 24 30 49 17 24 28 44
24 44 -3 0 4 15 18 32 13 18 32 51 43 73 11 22 23 42 26 45 3 3 39 64 80 135
41 72 78 138 84 147 52 87 75 129 75 138 0 5 5 10 10 10 6 0 10 4 10 10 0 5
16 34 35 64 19 30 35 57 35 60 0 3 18 35 40 71 22 36 40 68 40 71 0 2 8 17 19
32 10 15 74 124 142 242 68 118 129 224 136 235 7 11 16 27 20 35 6 14 111
196 132 230 12 19 168 290 202 350 15 25 37 64 51 86 13 21 28 46 31 54 4 8
21 38 37 65 17 28 38 65 47 83 20 39 24 28 -99 239 -43 72 -78 136 -78 142 0
6 -4 11 -9 11 -5 0 -13 10 -17 23 -3 12 -12 28 -18 36 -11 14 -58 94 -97 166
-12 22 -28 48 -37 58 -8 9 -12 17 -9 17 3 0 -12 28 -33 63 -21 34 -53 89 -71
122 -17 33 -35 62 -40 65 -4 3 -13 17 -18 30 -6 14 -21 41 -32 60 -12 19 -33
56 -48 81 -14 26 -47 82 -72 125 -26 44 -47 81 -47 84 0 3 -16 30 -36 60 -20
30 -36 60 -36 67 0 7 -3 13 -7 13 -5 0 -19 23 -32 50 -14 28 -29 50 -33 50 -4
0 -8 4 -8 10 0 5 -54 102 -120 216 -66 114 -120 209 -120 212 0 2 -8 16 -19
30 -10 15 -33 54 -51 87 -18 33 -37 63 -42 66 -5 3 -10 12 -11 20 -2 8 -18 39
-37 69 -19 30 -44 73 -55 95 -12 22 -37 65 -55 95 -35 59 -48 81 -101 175 -18
33 -37 62 -41 63 -4 2 -8 7 -8 12 0 4 -31 61 -68 127 -38 65 -75 129 -83 143
-8 14 -16 27 -19 30 -3 3 -12 19 -21 35 -46 86 -55 100 -61 103 -5 2 -8 9 -8
15 -1 7 -23 48 -50 92 -27 44 -59 100 -72 125 -13 25 -25 47 -28 50 -11 10
-160 272 -160 281 0 5 -4 9 -10 9 -5 0 -10 4 -10 10 0 5 -12 30 -27 55 l-28
45 -591 0 c-505 0 -593 -2 -604 -15z"/>
<path d="M5119 3893 c-14 -18 -21 -30 -61 -102 -11 -20 -32 -56 -48 -81 -15
-25 -82 -141 -149 -258 -67 -117 -130 -226 -139 -242 -59 -99 -82 -141 -82
-150 0 -5 -4 -10 -8 -10 -5 0 -19 -22 -32 -50 -13 -27 -27 -50 -32 -50 -4 0
-8 -5 -8 -11 0 -6 -29 -60 -65 -120 -36 -61 -65 -112 -65 -115 0 -5 -62 -108
-69 -114 -4 -3 -7 -11 -9 -18 -1 -8 -11 -26 -21 -40 -36 -54 -91 -150 -91
-161 0 -6 -4 -11 -9 -11 -5 0 -11 -8 -14 -17 -4 -10 -18 -38 -33 -63 -25 -43
-256 -441 -378 -652 -31 -54 -56 -102 -56 -108 0 -5 -3 -10 -8 -10 -4 0 -18
-21 -32 -47 -13 -27 -37 -67 -53 -90 -15 -24 -24 -43 -20 -43 4 0 4 -4 -2 -8
-5 -4 -16 -18 -24 -32 -8 -14 -36 -63 -63 -109 -26 -46 -48 -88 -48 -92 0 -5
-4 -9 -10 -9 -5 0 -10 -4 -10 -9 0 -7 -65 -124 -100 -181 -47 -75 -140 -244
-140 -254 0 -35 13 -36 611 -36 457 0 589 3 597 13 9 12 166 280 244 418 7 13
16 26 19 29 3 3 11 20 18 38 8 17 17 32 22 32 5 0 9 5 9 10 0 6 45 88 100 181
55 94 100 173 100 176 0 3 8 17 19 31 19 28 77 131 95 169 6 13 14 23 19 23 4
0 7 4 7 9 0 7 21 45 65 119 16 27 98 170 115 200 16 29 187 323 207 357 7 11
18 31 25 45 7 14 18 31 25 38 7 8 11 17 8 22 -3 5 -2 10 3 12 8 3 92 142 92
152 0 3 12 24 28 48 38 60 47 75 85 143 19 33 59 104 90 158 32 53 82 141 114
195 31 53 63 112 72 130 8 17 19 32 23 32 4 0 8 4 8 10 0 5 18 39 40 75 22 36
40 68 40 70 0 3 11 24 26 46 14 22 34 56 45 75 44 78 63 111 80 139 33 54 40
75 29 95 -10 19 -31 19 -599 20 -550 0 -589 -1 -602 -17z"/>
</g>
</svg>
